<svg id="Capa_1" enable-background="new 0 0 512 512" height="512" viewBox="0 0 512 512" width="512" xmlns="http://www.w3.org/2000/svg"><path d="m290.877 269.968c-1.1-3.411-4.275-5.723-7.859-5.723h-28.268l-26.417 16.755-67.333 210 74.593-54c11.978-9.411 28.837-9.411 40.814 0l77.593 59 8.532-3.902z" fill="#5d5360"/><path d="m247.742 280.761h16.515v99.092h-16.515z" fill="#857e87"/><path d="m367.021 506.015-4.489-13.917-75.921-59.652c-8.689-6.827-19.56-10.587-30.611-10.587-11.05 0-21.922 3.76-30.611 10.587-15.892 12.486-38.348-3.144-32.158-22.383l35.258-109.588c2.197-6.828 8.549-11.457 15.722-11.457h11.789v-24.773h-27.018c-3.584 0-6.759 2.312-7.859 5.723l-76.144 236.047c-1.382 4.285 3.62 7.77 7.161 4.988l83.453-65.57c11.977-9.411 28.837-9.411 40.814 0l83.453 65.57c3.541 2.781 8.543-.703 7.161-4.988z" fill="#4b3f4e"/><path d="m239.485 82.577v74.32l7.515 8.603-7.515 7.911v33.03l7.515 8.391-7.515 8.125v24.773l7.515 8.27-7.515 8.245v16.516c0 4.561 3.697 8.258 8.258 8.258h16.515c4.561 0 8.258-3.697 8.258-8.258v-16.515l-5.516-8.246 5.515-8.27v-24.773l-5.515-7.957 5.515-8.559v-33.03l-5.515-8.744 5.515-7.771v-74.32l-16.348-10.326z" fill="#966a5b"/><path d="m156.908 363.337h-49.546c-4.564 0-8.258-3.697-8.258-8.258s3.693-8.258 8.258-8.258h49.546c4.564 0 8.258 3.697 8.258 8.258s-3.694 8.258-8.258 8.258z" fill="#ecbd83"/><path d="m165.166 330.311c-.863 0-1.742-.137-2.613-.427l-24.773-8.258c-4.322-1.443-6.661-6.121-5.217-10.447 1.443-4.322 6.08-6.681 10.443-5.222l24.773 8.258c4.322 1.443 6.661 6.121 5.217 10.447-1.153 3.459-4.371 5.649-7.83 5.649z" fill="#ffe09f"/><path d="m132.143 404.626c-3.032 0-5.943-1.669-7.395-4.564-2.04-4.08-.387-9.04 3.693-11.08l16.515-8.258c4.072-2.044 9.032-.391 11.08 3.693 2.04 4.08.387 9.04-3.693 11.08l-16.515 8.258c-1.185.593-2.443.871-3.685.871z" fill="#ffe09f"/><path d="m404.638 363.337h-49.546c-4.564 0-8.258-3.697-8.258-8.258s3.693-8.258 8.258-8.258h49.546c4.564 0 8.258 3.697 8.258 8.258s-3.694 8.258-8.258 8.258z" fill="#ecbd83"/><path d="m346.834 330.311c-3.46 0-6.677-2.189-7.83-5.649-1.443-4.326.895-9.004 5.217-10.447l24.773-8.258c4.371-1.46 9 .899 10.443 5.222 1.443 4.326-.895 9.004-5.217 10.447l-24.773 8.258c-.871.29-1.75.427-2.613.427z" fill="#ffe09f"/><path d="m379.857 404.626c-1.242 0-2.5-.278-3.685-.871l-16.515-8.258c-4.08-2.04-5.734-7-3.693-11.08 2.04-4.085 7-5.738 11.08-3.693l16.515 8.258c4.08 2.04 5.734 7 3.693 11.08-1.452 2.894-4.363 4.564-7.395 4.564z" fill="#ffe09f"/><g fill="#ecbd83"><path d="m319.045 451.418c-4.564 0-8.298-3.697-8.298-8.258s3.653-8.258 8.217-8.258h.081c4.564 0 8.258 3.697 8.258 8.258s-3.693 8.258-8.258 8.258z"/><path d="m303.046 426.431c-4.564 0-8.298-3.697-8.298-8.258s3.653-8.258 8.217-8.258h.081c4.564 0 8.258 3.697 8.258 8.258s-3.694 8.258-8.258 8.258z"/><path d="m239.485 61.167h33.031v21.41h-33.031z"/><path d="m239.485 156.896h33.031v16.515h-33.031z"/><path d="m239.485 206.442h33.031v16.515h-33.031z"/><path d="m239.485 247.73h33.031v16.515h-33.031z"/><path d="m272.515 396.368h-24.773c-4.561 0-8.258-3.697-8.258-8.258v-8.258c0-4.561 3.697-8.258 8.258-8.258h24.773c4.561 0 8.258 3.697 8.258 8.258v8.258c0 4.561-3.697 8.258-8.258 8.258z"/></g><path d="m256 388.11c-4.561 0-8.258-3.697-8.258-8.258v-8.258h-8.258c-4.561 0-8.258 3.697-8.258 8.258v16.515c0 4.56 3.697 8.258 8.258 8.258h33.031c4.561 0 8.258-3.697 8.258-8.258v-8.258h-24.773z" fill="#d19a6e"/><path d="m267.561 6.606-39.637 52.849c-2.041 2.722-.099 6.606 3.303 6.606h41.288l22.681-60.483c1.013-2.699-.983-5.578-3.866-5.578h-10.557c-5.198 0-10.093 2.447-13.212 6.606z" fill="#857e87"/><path d="m238.452 51.953c-1.984 0-3.976-.71-5.556-2.149l-5.677-5.161c-3.371-3.064-3.621-8.29-.556-11.665 3.072-3.371 8.306-3.617 11.669-.552l5.677 5.161c3.371 3.064 3.621 8.29.556 11.665-1.629 1.79-3.871 2.701-6.113 2.701z" fill="#ecbd83"/><path d="m256.419 28.757c-1.984 0-3.976-.71-5.556-2.149l-5.677-5.161c-3.371-3.064-3.621-8.29-.556-11.665 3.072-3.375 8.306-3.617 11.669-.552l5.677 5.161c3.371 3.064 3.621 8.29.556 11.665-1.629 1.789-3.871 2.701-6.113 2.701z" fill="#ecbd83"/></svg>