<svg id="Layer_2" height="512" viewBox="0 0 128 128" width="512" xmlns="http://www.w3.org/2000/svg" data-name="Layer 2"><path d="m51.415 51.093c1.313 2.137 3.72 3.987 8.285 4.812l7.9 7.519c1.122 4.554 3.157 6.086 6.4 7.12.831.27 1.761.5 2.764.745 4.895 1.161 6.746 5.6-2.625 10.768-.66.362-1.291.721-1.9 1.072-5.838 3.369-9.065 6.047-10.888 9.19a10.1 10.1 0 0 0 -1.491 3.617c-.006.008 0 .015-.005.022a9.5 9.5 0 0 0 -.191 2.15c.1 5.711-1.439 11.5-5.511 15.73-10.963 11.378-24.492 9.243-36.257-.856s-15.34-25.228-6.346-35.708a23.288 23.288 0 0 1 14.7-7.838 10.111 10.111 0 0 0 6.166-3.25c5.445-8.617 6.47-27.443 12.2-29.154 4.6-1.378 4.737 5.546 4.984 7.641a15.022 15.022 0 0 0 1.815 6.42z" fill="#fa7300"/><g fill="#fcd248"><path d="m37.609 116.253a21.67 21.67 0 0 1 -11.043-3.433 1.75 1.75 0 0 1 1.8-3 18.258 18.258 0 0 0 9.248 2.938 12.749 12.749 0 0 0 8.163-3.079 1.75 1.75 0 1 1 2.186 2.733 16.112 16.112 0 0 1 -10.354 3.841z"/><path d="m39.841 97.062a1.744 1.744 0 0 1 -1.141-.422l-8.26-7.092a1.75 1.75 0 0 1 2.28-2.656l8.261 7.091a1.75 1.75 0 0 1 -1.14 3.079z"/><path d="m46.045 89.833a1.743 1.743 0 0 1 -1.138-.422l-8.262-7.092a1.75 1.75 0 0 1 2.279-2.656l8.262 7.091a1.75 1.75 0 0 1 -1.141 3.079z"/><path d="m56.883 75.91-8.261-7.091 48.272-55.139 7.172 6.156z"/><path d="m37.609 116.253a21.67 21.67 0 0 1 -11.043-3.433 1.75 1.75 0 0 1 1.8-3 18.258 18.258 0 0 0 9.248 2.938 12.749 12.749 0 0 0 8.163-3.079 1.75 1.75 0 1 1 2.186 2.733 16.112 16.112 0 0 1 -10.354 3.841z"/><path d="m39.841 97.062a1.744 1.744 0 0 1 -1.141-.422l-8.26-7.092a1.75 1.75 0 0 1 2.28-2.656l8.261 7.091a1.75 1.75 0 0 1 -1.14 3.079z"/><path d="m46.045 89.833a1.743 1.743 0 0 1 -1.138-.422l-8.262-7.092a1.75 1.75 0 0 1 2.279-2.656l8.262 7.091a1.75 1.75 0 0 1 -1.141 3.079z"/></g><path d="m90.435 21.059 3.717-10.417 27.348-4.142s-2.438 5.628-3.438 8c-5.526 3.546-20.136 12.524-20.136 12.524z" fill="#fa7300"/></svg>