<svg id="Layer_2" height="512" viewBox="0 0 128 128" width="512" xmlns="http://www.w3.org/2000/svg" data-name="Layer 2"><path d="m108.7 7.887a1.743 1.743 0 0 1 -1.237-.513l-4.383-4.387a1.75 1.75 0 1 1 2.475-2.474l4.386 4.387a1.751 1.751 0 0 1 -1.241 2.987z" fill="#aabece"/><path d="m102.271 14.32a1.748 1.748 0 0 1 -1.238-.512l-4.387-4.387a1.75 1.75 0 1 1 2.475-2.475l4.387 4.387a1.75 1.75 0 0 1 -1.237 2.987z" fill="#aabece"/><path d="m126.25 25.433a1.741 1.741 0 0 1 -1.237-.513l-4.387-4.387a1.75 1.75 0 1 1 2.475-2.474l4.386 4.386a1.751 1.751 0 0 1 -1.237 2.988z" fill="#aabece"/><path d="m119.816 31.866a1.748 1.748 0 0 1 -1.237-.512l-4.387-4.387a1.75 1.75 0 1 1 2.475-2.475l4.387 4.387a1.75 1.75 0 0 1 -1.238 2.987z" fill="#aabece"/><path d="m66.723 99.812a11.328 11.328 0 0 1 6.727-8.558 25.781 25.781 0 0 0 7.85-5.375c8.872-8.879 9.962-22.667 3.427-33.248l-19.634 19.633a12.063 12.063 0 0 0 -9.357-9.357l19.633-19.634c-10.581-6.535-24.369-5.445-33.248 3.427a25.781 25.781 0 0 0 -5.375 7.848 11.328 11.328 0 0 1 -8.558 6.727 31.214 31.214 0 0 0 -17.256 8.769c-12.546 12.547-12.191 33.243.794 46.228s33.681 13.34 46.228.794a31.214 31.214 0 0 0 8.769-17.254z" fill="#e97424"/><circle cx="53.259" cy="74.741" fill="#f4f4e6" r="12.097"/><rect fill="#e97424" height="18.61" rx="3.722" transform="matrix(.707 -.707 .707 .707 21.557 83.91)" width="25.126" x="99.504" y="6.628"/><path d="m107.86 29.5-11.77 11.77-2.48 2.47-4.39 4.4-2.48 2.48-4.4 4.39-2.47 2.48-6.87 6.87-7.91 7.9a12.065 12.065 0 0 0 -9.35-9.35l7.9-7.91 2.47-2.47 4.4-4.4 2.48-2.47 4.39-4.4 2.48-2.48 4.4-4.39 2.47-2.48 4.4-4.4 2.47-2.47 4.9-4.9z" fill="#394d5c"/><path d="m18.243 90.682h30.397v7.754h-30.397z" fill="#fcf05a" transform="matrix(.707 .707 -.707 .707 76.658 4.049)"/><g fill="#273944"><path d="m95.298 24.336h3.493v13.237h-3.493z" transform="matrix(.707 -.707 .707 .707 6.536 77.689)"/><path d="m84.26 34.39 9.35 9.35 2.48-2.47-9.36-9.36z"/><path d="m81.546 38.081h3.507v13.237h-3.507z" transform="matrix(.707 -.707 .707 .707 -7.21 71.994)"/><path d="m70.51 48.13 9.36 9.36 2.47-2.48-9.35-9.35z"/><path d="m67.808 51.826h3.493v13.237h-3.493z" transform="matrix(.707 -.707 .707 .707 -20.955 66.301)"/></g></svg>